<?xml version="1.0" encoding="UTF-8"?><svg id="Layer_1" xmlns="http://www.w3.org/2000/svg" viewBox="0 0 396.85 396.85"><defs><style>.cls-1{stroke-linejoin:round;}.cls-1,.cls-2,.cls-3,.cls-4,.cls-5{stroke:#000;}.cls-1,.cls-4{stroke-width:6px;}.cls-1,.cls-5{stroke-linecap:round;}.cls-2{fill:none;stroke-dasharray:13.5 15.42;stroke-width:17px;}.cls-2,.cls-3,.cls-4,.cls-5{stroke-miterlimit:10;}.cls-3,.cls-4,.cls-5{fill:#fff;}.cls-3,.cls-5{stroke-width:10px;}.cls-6{fill:#3b97c3;}</style></defs><ellipse cx="198.43" cy="339.79" rx="16.73" ry="14.74"/><ellipse class="cls-4" cx="198.43" cy="330.73" rx="27.42" ry="14.28"/><ellipse class="cls-4" cx="198.43" cy="315.8" rx="32.21" ry="18.92"/><ellipse class="cls-4" cx="198.43" cy="300.87" rx="37.01" ry="23.56"/><path class="cls-1" d="M94.48,185.27s17.9,38.39,32.08,54.84c28.64,33.22,13.15,71.93,71.87,71.93,58.71,0,43.23-38.72,71.87-71.93,14.18-16.45,32.08-54.84,32.08-54.84H94.48Z"/><ellipse class="cls-3" cx="198.43" cy="167.48" rx="107.41" ry="70.34"/><ellipse class="cls-2" cx="198.43" cy="167.48" rx="81.12" ry="45.2"/><ellipse class="cls-6" cx="198.43" cy="167.48" rx="40.01" ry="26.2"/><line class="cls-5" x1="198.43" y1="76.88" x2="198.43" y2="42.33"/><line class="cls-5" x1="312.87" y1="120.33" x2="339.1" y2="97.84"/><line class="cls-5" x1="261.09" y1="84.9" x2="273.56" y2="52.67"/><line class="cls-5" x1="83.98" y1="120.33" x2="57.75" y2="97.84"/><line class="cls-5" x1="135.76" y1="84.9" x2="123.29" y2="52.67"/><line class="cls-5" x1="327.89" y1="167.48" x2="362.44" y2="167.48"/><line class="cls-5" x1="34.41" y1="167.48" x2="68.96" y2="167.48"/></svg>