<?xml version="1.0" encoding="UTF-8"?><svg id="Layer_1" xmlns="http://www.w3.org/2000/svg" viewBox="0 0 396.85 396.85"><defs><style>.cls-1,.cls-2{fill:#fff;stroke:#000;stroke-miterlimit:10;stroke-width:10px;}.cls-2{stroke-linecap:round;}.cls-3{fill:#3b97c3;}</style></defs><polyline class="cls-2" points="198.43 208.16 222.32 122.71 289.85 122.71 289.85 162.71"/><circle class="cls-2" cx="222.32" cy="121.48" r="10.36"/><circle class="cls-2" cx="289.85" cy="121.48" r="10.36"/><rect class="cls-1" x="81.31" y="208.16" width="234.23" height="91.01" rx="18.78" ry="18.78"/><circle class="cls-1" cx="125.94" cy="303.14" r="23.89"/><circle cx="125.94" cy="303.14" r="8.47"/><circle class="cls-1" cx="198.43" cy="303.14" r="23.89"/><circle cx="198.43" cy="303.14" r="8.47"/><circle class="cls-1" cx="270.91" cy="303.14" r="23.89"/><circle cx="270.91" cy="303.14" r="8.47"/><polyline class="cls-1" points="119.61 208.16 138.81 159.99 138.81 100.36"/><circle class="cls-1" cx="138.81" cy="159.99" r="13.07"/><rect class="cls-1" x="103.08" y="69.82" width="71.45" height="30.54" rx="5.15" ry="5.15"/><circle cx="156" cy="85.09" r="7.17"/><line class="cls-2" x1="116.4" y1="85.09" x2="135.89" y2="85.09"/><line class="cls-2" x1="103.08" y1="238.66" x2="215.11" y2="238.66"/><line class="cls-2" x1="103.08" y1="258.95" x2="215.11" y2="258.95"/><circle class="cls-3" cx="249.14" cy="249.79" r="11.13"/><circle class="cls-3" cx="286.16" cy="249.79" r="11.13"/><path class="cls-2" d="M280.72,184.76c-5.04-5.04-5.04-13.22,0-18.26,5.04-5.04,13.22-5.04,18.26,0,5.04,5.04,5.04,13.22,0,18.26"/></svg>