<?xml version="1.0" encoding="utf-8"?>
<!-- Generator: Adobe Illustrator 27.5.0, SVG Export Plug-In . SVG Version: 6.00 Build 0)  -->
<svg version="1.1" id="Layer_1" xmlns="http://www.w3.org/2000/svg" xmlns:xlink="http://www.w3.org/1999/xlink" x="0px" y="0px"
	 viewBox="0 0 1200 400" style="enable-background:new 0 0 1200 400;" xml:space="preserve">
<g>
	<rect x="84.77" y="137.18" width="178.06" height="178.06"/>
	<path d="M315.76,263.79H136.21V84.24h179.55V263.79z M137.71,262.29h176.56V85.73H137.71V262.29z"/>
	<rect x="73.96" y="110.33" transform="matrix(0.7071 -0.7071 0.7071 0.7071 -46.0736 110.9252)" width="73.81" height="1.5"/>
	<rect x="252.01" y="110.33" transform="matrix(0.7071 -0.7071 0.7071 0.7071 6.0723 236.8275)" width="73.81" height="1.5"/>
	<rect x="252.01" y="288.38" transform="matrix(0.7074 -0.7068 0.7068 0.7074 -119.8222 288.8026)" width="73.81" height="1.5"/>
</g>
<path d="M711.83,182.04c0-0.16,0.01-0.31,0.01-0.47c0-46.2-37.45-83.65-83.65-83.65c-34.06,0-63.34,20.37-76.39,49.58
	c-4.9-1.84-10.21-2.86-15.76-2.86c-22.09,0-40.42,16-44.08,37.05c-31.59,1.88-56.63,28.08-56.63,60.13
	c0,33.28,26.98,60.25,60.25,60.25h208.81c33.28,0,60.25-26.98,60.25-60.25C764.66,211.06,741.6,185.7,711.83,182.04z"/>
<g>
	<rect x="878.55" y="173.1" width="169.75" height="153.97"/>
	<path d="M1027.22,211.95h-16v-91.9c0-35.9,29.21-65.11,65.11-65.11c35.9,0,65.11,29.21,65.11,65.11v17.4h-16v-17.4
		c0-27.08-22.03-49.11-49.11-49.11c-27.08,0-49.11,22.03-49.11,49.11V211.95L1027.22,211.95z"/>
</g>
</svg>
