<svg xmlns="http://www.w3.org/2000/svg" xmlns:xlink="http://www.w3.org/1999/xlink" width="100.0" height="100.0" viewBox="11.007000000000023 46.639766045464434 0.37350000000000527 0.328233954535591" preserveAspectRatio="xMinYMin meet"><g transform="matrix(1,0,0,-1,0,93.60776604546446)"><path fill-rule="evenodd" fill="#66cc99" stroke="#555555" stroke-width="0.007470000000000105" opacity="0.6" d="M 11.075,46.72916666666669 L 11.072575547960094,46.728813340928845 L 11.069091118706622,46.72535332573787 L 11.048285590277802,46.724646674262175 L 11.042024739583358,46.73087632921009 L 11.041666666666691,46.733333333333356 L 11.038123575846377,46.73424241807728 L 11.0375,46.74583333333336 L 11.03664923773874,46.74914923773874 L 11.030017428927975,46.75085076226131 L 11.028599378797768,46.756377156575546 L 11.025567287868947,46.76028951009117 L 11.0244327121311,46.76471048990888 L 11.02140062120228,46.7686228434245 L 11.020833333333357,46.77083333333336 L 11.024291653103322,46.77172071668839 L 11.025567287868947,46.781377156575545 L 11.032766045464435,46.78945617675784 L 11.033900621202282,46.79387715657555 L 11.036932712131101,46.79778951009117 L 11.038067287868948,46.80221048990888 L 11.042586263020858,46.80762905544707 L 11.052210489908878,46.808900621202284 L 11.06028951009117,46.816099378797766 L 11.06471048990888,46.81723395453562 L 11.068622843424503,46.820266045464436 L 11.073043823242212,46.82140062120228 L 11.077974107530407,46.82522176106773 L 11.079733954535614,46.83010389539933 L 11.071295166015648,46.83957451714412 L 11.0744327121311,46.843622843424505 L 11.075567287868948,46.846579996744815 L 11.071400621202281,46.85195617675784 L 11.070266045464434,46.859321424696205 L 11.082766045464435,46.872789510091174 L 11.084041680230058,46.882445949978326 L 11.089710489908878,46.88390062120228 L 11.09995964898006,46.89319695366756 L 11.096400621202282,46.89778951009117 L 11.095266045464435,46.91343722873266 L 11.103599378797767,46.92278951009117 L 11.104166666666691,46.929166666666696 L 11.114924452039954,46.92951999240454 L 11.11875,46.9333187527127 L 11.12328694661461,46.92881334092885 L 11.139924452039956,46.92951999240454 L 11.143408881293428,46.93298000759551 L 11.148288302951414,46.933691067165825 L 11.157980007595512,46.94340888129343 L 11.158691406250025,46.948290337456626 L 11.16424221462676,46.953813340928846 L 11.166666666666693,46.954166666666694 L 11.167024739583358,46.95170966254343 L 11.172575547960095,46.94618665907121 L 11.177424452039956,46.94548000759551 L 11.180908881293428,46.94201999240454 L 11.185757785373289,46.94131334092884 L 11.189242214626761,46.937853325737876 L 11.194123670789956,46.93714192708336 L 11.199646674262178,46.93159111870662 L 11.200353325737872,46.9100755479601 L 11.204519992404538,46.90587972005211 L 11.203813340928845,46.901742214626765 L 11.199646674262178,46.89754638671877 L 11.200353325737872,46.89340888129343 L 11.203813340928845,46.889924452039956 L 11.204519992404538,46.8850755479601 L 11.21248609754777,46.877084011501765 L 11.208686659071207,46.87325778537329 L 11.208333333333359,46.85833333333336 L 11.210543823242213,46.85776604546444 L 11.214456176757839,46.85473395453562 L 11.231377156575547,46.85359937879777 L 11.239456176757837,46.846400621202285 L 11.260543823242212,46.845266045464435 L 11.26458333333336,46.84213528103301 L 11.26875,46.84536471896704 L 11.272789510091172,46.842233954535615 L 11.323043823242214,46.84109937879777 L 11.331122843424506,46.83390062120228 L 11.343877156575548,46.83276604546444 L 11.347789510091172,46.82973395453561 L 11.35331590440541,46.82831590440541 L 11.354733954535616,46.82278951009117 L 11.357766045464437,46.818877156575546 L 11.358900621202284,46.81445617675784 L 11.36609937879777,46.80637715657554 L 11.366666666666694,46.80416666666669 L 11.365779283311658,46.80070834689673 L 11.356122843424506,46.7994327121311 L 11.35208333333336,46.796301947699675 L 11.347916666666693,46.799531385633706 L 11.343877156575548,46.79640062120228 L 11.339456176757839,46.79526604546444 L 11.335543823242213,46.79223395453562 L 11.321806165907145,46.79101189507381 L 11.31306728786895,46.781377156575545 L 11.311932712131103,46.776956176757835 L 11.304733954535617,46.76887715657555 L 11.30359937879777,46.76445617675784 L 11.30056728786895,46.760543823242216 L 11.299149237738742,46.75501742892798 L 11.293622843424505,46.753599378797766 L 11.289710489908881,46.75056728786895 L 11.279166666666693,46.75 L 11.278813340928846,46.73924221462676 L 11.27464667426218,46.73504638671878 L 11.275353325737873,46.73090888129343 L 11.283319430881102,46.722917344835096 L 11.27951999240454,46.71909111870662 L 11.278813340928846,46.705908881293425 L 11.275353325737873,46.702424452039956 L 11.275,46.7 L 11.274032253689262,46.69622938368058 L 11.267413330078151,46.691099378797766 L 11.260289510091171,46.69223395453562 L 11.25491333007815,46.69640062120228 L 11.251956176757838,46.695266045464436 L 11.248043823242213,46.69223395453562 L 11.239456176757837,46.691099378797766 L 11.235543823242214,46.68806728786895 L 11.218622843424505,46.6869327121311 L 11.21471048990888,46.683900621202284 L 11.197789510091171,46.68276604546443 L 11.193877156575546,46.679733954535614 L 11.184220716688394,46.67845831976999 L 11.182413736979193,46.671416219075546 L 11.173043823242214,46.66306728786895 L 11.168622843424505,46.6619327121311 L 11.159270562065997,46.653599378797765 L 11.154985215928845,46.655143907335095 L 11.154166666666692,46.65833333333336 L 11.15085076226131,46.65918409559464 L 11.15,46.6625 L 11.150353325737871,46.66909111870662 L 11.155876329210095,46.67464192708336 L 11.160757785373288,46.67535332573787 L 11.166668023003497,46.68123406304256 L 11.162853325737872,46.685075547960096 L 11.162146674262178,46.68992445203995 L 11.15451999240454,46.69757554796009 L 11.153813340928846,46.702424452039956 L 11.148290337456622,46.70797526041669 L 11.143408881293428,46.708686659071205 L 11.139924452039956,46.71214667426218 L 11.122575547960095,46.712853325737875 L 11.119091118706622,46.71631334092884 L 11.11424221462676,46.71701999240454 L 11.110757785373288,46.72048000759551 L 11.10174221462676,46.72118665907121 L 11.098257785373288,46.724646674262175 L 11.085075547960095,46.72535332573787 L 11.081591118706623,46.728813340928845 L 11.075,46.72916666666669 z" /></g></svg>