<?xml version="1.0" encoding="utf-8"?>
<!-- Generator: Adobe Illustrator 25.0.0, SVG Export Plug-In . SVG Version: 6.00 Build 0)  -->
<svg version="1.1" id="Layer_1" xmlns="http://www.w3.org/2000/svg" xmlns:xlink="http://www.w3.org/1999/xlink" x="0px" y="0px"
	 viewBox="0 0 106.9 50.4" style="enable-background:new 0 0 106.9 50.4;" xml:space="preserve">
<style type="text/css">
	.st0{fill:#FFFFFF;}
	.st1{fill:#E8E8E4;}
	.st2{fill:#009BDB;}
	.st3{fill:#FAAC1A;}
	.st4{fill:#00AE9D;}
</style>
<g>
	<g>
		<path class="st0" d="M67.3,20.1v-2.2c0-0.8,0.2-1.4,0.6-1.8s1-0.7,1.8-0.7s1.4,0.2,1.8,0.7c0.4,0.4,0.6,1.1,0.6,1.8v2.2
			c0,0.8-0.2,1.4-0.6,1.8s-1,0.7-1.8,0.7s-1.4-0.2-1.8-0.7C67.5,21.5,67.3,20.9,67.3,20.1z M68.5,20.1c0,0.4,0.1,0.8,0.3,1.1
			c0.2,0.3,0.5,0.4,1,0.4c0.4,0,0.8-0.1,1-0.4s0.3-0.6,0.3-1.1v-2.2c0-0.4-0.1-0.8-0.3-1.1c-0.2-0.3-0.5-0.4-1-0.4
			c-0.4,0-0.8,0.1-1,0.4s-0.3,0.6-0.3,1.1V20.1z"/>
	</g>
	<g>
		<path class="st0" d="M74.1,24.8v-9.1c0-0.1,0-0.1,0.1-0.2c0,0,0.1-0.1,0.2-0.1H75c0.1,0,0.1,0,0.2,0.1c0,0,0.1,0.1,0.1,0.2v0.1
			c0.5-0.3,1-0.5,1.5-0.5c0.7,0,1.3,0.2,1.7,0.6c0.4,0.4,0.6,1,0.6,1.7v2.5c0,1.5-0.8,2.2-2.4,2.2c-0.3,0-0.7,0-1.3-0.1v2.5
			c0,0.1,0,0.1-0.1,0.2c0,0-0.1,0.1-0.2,0.1h-0.7c-0.1,0-0.1,0-0.2-0.1C74.1,25,74.1,24.9,74.1,24.8z M75.3,21.4h1.3
			c0.9,0,1.3-0.4,1.3-1.2v-2.5c0-0.4-0.1-0.7-0.3-1c-0.2-0.2-0.5-0.4-0.9-0.4s-0.8,0.1-1.4,0.4V21.4z"/>
	</g>
	<g>
		<path class="st0" d="M80.8,19.2v-0.6c0-1,0.2-1.9,0.6-2.4c0.4-0.6,1.1-0.9,1.9-0.9c0.4,0,0.8,0.1,1.1,0.2c0.3,0.1,0.6,0.3,0.7,0.6
			c0.2,0.3,0.3,0.6,0.4,0.9s0.1,0.7,0.1,1.1V19c0,0.1,0,0.1-0.1,0.2c-0.1,0-0.1,0.1-0.2,0.1h-3.5c0,0.7,0.2,1.2,0.5,1.6
			c0.3,0.3,0.7,0.5,1.2,0.5c0.2,0,0.4,0,0.7,0c0.3,0,0.5-0.1,0.6-0.1H85c0.1,0,0.1,0,0.2,0c0,0,0.1,0.1,0.1,0.2v0.6
			c0,0.1-0.1,0.2-0.3,0.3c-0.6,0.1-1.1,0.2-1.6,0.2c-0.9,0-1.6-0.3-2.1-0.8C81,21.2,80.8,20.4,80.8,19.2z M81.9,18.5h2.6v-0.3
			c0-1.2-0.4-1.8-1.2-1.8c-0.2,0-0.4,0-0.6,0.1s-0.3,0.2-0.4,0.3c-0.1,0.1-0.2,0.3-0.2,0.5C82,17.5,82,17.7,82,17.9
			C82,18,81.9,18.2,81.9,18.5z"/>
	</g>
	<g>
		<path class="st0" d="M87.5,22.2v-6.4c0-0.1,0-0.1,0.1-0.2c0,0,0.1-0.1,0.2-0.1h0.7c0.1,0,0.1,0,0.2,0.1c0,0,0.1,0.1,0.1,0.2V16
			c0.5-0.4,1.1-0.6,1.8-0.6c0.7,0,1.2,0.2,1.5,0.6c0.3,0.4,0.5,1,0.5,1.8v4.5c0,0.1,0,0.1-0.1,0.2c-0.1,0-0.1,0.1-0.2,0.1h-0.7
			c-0.1,0-0.1,0-0.2-0.1c-0.1,0-0.1-0.1-0.1-0.2v-4.5c0-0.4-0.1-0.7-0.2-0.9c-0.1-0.2-0.4-0.3-0.8-0.3s-0.9,0.2-1.5,0.5v5.2
			c0,0.1,0,0.1-0.1,0.2c0,0-0.1,0.1-0.2,0.1h-0.7c-0.1,0-0.1,0-0.2-0.1C87.5,22.3,87.5,22.3,87.5,22.2z"/>
	</g>
</g>
<g>
	<g>
		<path class="st0" d="M94.3,22.2v-9.4c0-0.1,0-0.1,0.1-0.2c0,0,0.1-0.1,0.2-0.1H99c0.1,0,0.1,0,0.2,0.1c0,0,0.1,0.1,0.1,0.2v0.6
			c0,0.1,0,0.1-0.1,0.2c-0.1,0-0.1,0.1-0.2,0.1h-3.5v3.2h3.2c0.1,0,0.1,0,0.2,0.1c0,0,0.1,0.1,0.1,0.2v0.6c0,0.1,0,0.1-0.1,0.2
			c0,0-0.1,0.1-0.2,0.1h-3.2v3.3H99c0.1,0,0.1,0,0.2,0.1c0,0,0.1,0.1,0.1,0.2v0.6c0,0.1,0,0.1-0.1,0.2c-0.1,0-0.1,0.1-0.2,0.1h-4.4
			c-0.1,0-0.1,0-0.2-0.1C94.4,22.3,94.3,22.3,94.3,22.2z"/>
	</g>
	<g>
		<path class="st0" d="M100.7,19.4v-3.8c0-0.5,0.1-0.9,0.2-1.3c0.1-0.4,0.3-0.7,0.6-1c0.2-0.3,0.6-0.5,1-0.7s0.9-0.2,1.4-0.2
			c1,0,1.8,0.3,2.3,0.9c0.5,0.6,0.8,1.4,0.8,2.3v3.8c0,1-0.3,1.8-0.8,2.3c-0.5,0.6-1.3,0.9-2.3,0.9c-0.5,0-1-0.1-1.4-0.2
			s-0.7-0.4-1-0.7c-0.2-0.3-0.4-0.6-0.6-1C100.7,20.3,100.7,19.9,100.7,19.4z M101.9,19.4c0,0.3,0,0.5,0.1,0.8
			c0.1,0.2,0.2,0.5,0.3,0.7c0.1,0.2,0.3,0.4,0.6,0.5c0.3,0.1,0.5,0.2,0.9,0.2c0.3,0,0.6-0.1,0.9-0.2c0.2-0.1,0.4-0.3,0.6-0.5
			c0.1-0.2,0.2-0.4,0.3-0.7c0.1-0.2,0.1-0.5,0.1-0.8v-3.8c0-0.3,0-0.5-0.1-0.8c-0.1-0.2-0.2-0.5-0.3-0.7c-0.1-0.2-0.3-0.4-0.6-0.5
			c-0.2-0.1-0.5-0.2-0.9-0.2c-0.3,0-0.6,0.1-0.9,0.2c-0.3,0.1-0.4,0.3-0.6,0.5c-0.1,0.2-0.2,0.4-0.3,0.7c-0.1,0.2-0.1,0.5-0.1,0.8
			V19.4z"/>
	</g>
</g>
<g>
	<g>
		<path class="st0" d="M67.3,36.2v-8.7c0-0.1,0-0.1,0.1-0.2c0,0,0.1-0.1,0.2-0.1h2.3c0.9,0,1.6,0.2,2.1,0.7s0.7,1.1,0.7,2
			s-0.2,1.5-0.7,2c-0.5,0.5-1.2,0.7-2.1,0.7h-1.5v3.6c0,0.1,0,0.1-0.1,0.2c0,0-0.1,0.1-0.2,0.1h-0.6c-0.1,0-0.1,0-0.2-0.1
			C67.4,36.4,67.3,36.3,67.3,36.2z M68.4,31.6h1.5c0.6,0,1-0.1,1.3-0.4s0.4-0.7,0.4-1.2s-0.1-0.9-0.4-1.2c-0.3-0.3-0.7-0.4-1.3-0.4
			h-1.5V31.6z"/>
	</g>
	<g>
		<path class="st0" d="M74,36.2v-8.7c0-0.1,0-0.1,0.1-0.2c0,0,0.1-0.1,0.2-0.1h0.6c0.1,0,0.1,0,0.2,0.1c0,0,0.1,0.1,0.1,0.2v8.7
			c0,0.1,0,0.1-0.1,0.2c0,0-0.1,0.1-0.2,0.1h-0.6c-0.1,0-0.1,0-0.2-0.1C74,36.4,74,36.3,74,36.2z"/>
	</g>
	<g>
		<path class="st0" d="M76.2,34.7c0-1.3,0.7-2,2.2-2c0.1,0,0.3,0,0.5,0s0.4,0,0.6,0h0.2V32c0-0.4-0.1-0.7-0.3-0.9
			c-0.2-0.2-0.5-0.3-1-0.3c-0.3,0-0.5,0-0.8,0c-0.2,0-0.4,0.1-0.5,0.1L76.9,31c-0.2,0-0.2,0-0.2-0.2v-0.5c0-0.1,0.1-0.2,0.2-0.3
			c0.1,0,0.1,0,0.2-0.1c0.1,0,0.3-0.1,0.6-0.1c0.3-0.1,0.6-0.1,0.9-0.1c0.8,0,1.3,0.2,1.6,0.6c0.3,0.4,0.5,0.9,0.5,1.7v4.1
			c0,0.1,0,0.1-0.1,0.2c0,0-0.1,0.1-0.2,0.1h-0.6c-0.1,0-0.1,0-0.2-0.1c0,0-0.1-0.1-0.1-0.2V36c-0.5,0.3-1,0.5-1.5,0.5
			c-0.6,0-1.1-0.2-1.4-0.5C76.4,35.8,76.2,35.3,76.2,34.7z M77.3,34.7c0,0.3,0.1,0.5,0.2,0.7c0.2,0.2,0.4,0.2,0.7,0.2
			c0.4,0,0.8-0.1,1.4-0.4v-1.5h-1.3c-0.4,0-0.7,0.1-0.8,0.3C77.4,34.1,77.3,34.4,77.3,34.7z"/>
	</g>
	<g>
		<path class="st0" d="M81.5,30.7v-0.4c0-0.1,0-0.1,0.1-0.2s0.1-0.1,0.2-0.1h0.7v-1.4c0-0.1,0-0.1,0.1-0.2c0,0,0.1-0.1,0.2-0.1h0.6
			c0.1,0,0.1,0,0.2,0.1c0,0,0.1,0.1,0.1,0.2V30h1.6c0.1,0,0.1,0,0.2,0.1s0.1,0.1,0.1,0.2v0.4c0,0.1,0,0.1-0.1,0.2
			c0,0-0.1,0.1-0.2,0.1h-1.6v4c0,0.2,0.1,0.4,0.2,0.6c0.1,0.1,0.3,0.2,0.5,0.2c0.1,0,0.3,0,0.4,0s0.3,0,0.4,0h0.1
			c0.1,0,0.2,0.1,0.2,0.2v0.5c0,0.2-0.1,0.2-0.2,0.2c-0.4,0.1-0.8,0.1-1.1,0.1c-0.5,0-0.8-0.1-1.1-0.4c-0.3-0.3-0.4-0.7-0.4-1.3
			v-3.9H82c-0.1,0-0.1,0-0.2-0.1C81.6,30.8,81.5,30.8,81.5,30.7z"/>
	</g>
	<g>
		<path class="st0" d="M85.6,30.7v-0.4c0-0.1,0-0.1,0.1-0.2c0,0,0.1-0.1,0.2-0.1h0.7v-1.2c0-1.1,0.5-1.6,1.5-1.6c0.1,0,0.3,0,0.4,0
			s0.2,0,0.3,0h0.1c0.2,0,0.2,0.1,0.2,0.3V28c0,0.1-0.1,0.2-0.2,0.2c-0.2,0-0.4,0-0.7,0c-0.3,0-0.5,0.2-0.5,0.6V30h0.9
			c0.1,0,0.1,0,0.2,0.1c0,0,0.1,0.1,0.1,0.2v0.4c0,0.1,0,0.1-0.1,0.2c0,0-0.1,0.1-0.2,0.1h-0.9v5.3c0,0.1,0,0.1-0.1,0.2
			c0,0-0.1,0.1-0.2,0.1h-0.6c-0.1,0-0.1,0-0.2-0.1c0,0-0.1-0.1-0.1-0.2V31h-0.7c-0.1,0-0.1,0-0.2-0.1C85.6,30.8,85.6,30.8,85.6,30.7
			z"/>
	</g>
	<g>
		<path class="st0" d="M89.2,34.3v-2.1c0-0.7,0.2-1.3,0.6-1.7c0.4-0.4,1-0.6,1.7-0.6s1.3,0.2,1.7,0.6c0.4,0.4,0.6,1,0.6,1.7v2.1
			c0,0.7-0.2,1.3-0.6,1.7s-1,0.6-1.7,0.6s-1.3-0.2-1.7-0.6C89.4,35.6,89.2,35,89.2,34.3z M90.3,34.3c0,0.4,0.1,0.7,0.3,1
			c0.2,0.2,0.5,0.4,0.9,0.4s0.7-0.1,0.9-0.4c0.2-0.2,0.3-0.6,0.3-1v-2.1c0-0.4-0.1-0.7-0.3-1c-0.2-0.2-0.5-0.4-0.9-0.4
			s-0.7,0.1-0.9,0.4c-0.2,0.2-0.3,0.6-0.3,1V34.3z"/>
	</g>
	<g>
		<path class="st0" d="M95.1,36.2v-6c0-0.1,0-0.1,0.1-0.2c0,0,0.1-0.1,0.2-0.1H96c0.1,0,0.1,0,0.2,0.1c0,0,0.1,0.1,0.1,0.2v0.6
			c0.3-0.6,0.7-1,1.4-1h0.2c0.1,0,0.2,0.1,0.2,0.3v0.7c0,0.1,0,0.1-0.1,0.2c0,0-0.1,0.1-0.2,0.1c0,0-0.1,0-0.2,0
			c-0.3,0-0.6,0.1-0.8,0.3c-0.2,0.2-0.4,0.4-0.6,0.7v4.1c0,0.1,0,0.1-0.1,0.2c0,0-0.1,0.1-0.2,0.1h-0.6c-0.1,0-0.1,0-0.2-0.1
			C95.1,36.4,95.1,36.3,95.1,36.2z"/>
	</g>
	<g>
		<path class="st0" d="M98.9,36.2v-6c0-0.1,0-0.1,0.1-0.2c0,0,0.1-0.1,0.2-0.1h0.6c0.1,0,0.1,0,0.2,0.1c0,0,0.1,0.1,0.1,0.2v0.2
			c0.5-0.4,1-0.6,1.7-0.6c0.8,0,1.3,0.3,1.6,0.8c0.5-0.5,1.2-0.8,1.9-0.8c0.7,0,1.1,0.2,1.4,0.6s0.4,0.9,0.4,1.6v4.1
			c0,0.1,0,0.1-0.1,0.2c0,0-0.1,0.1-0.2,0.1h-0.6c-0.1,0-0.1,0-0.2-0.1c0,0-0.1-0.1-0.1-0.2V32c0-0.4-0.1-0.7-0.2-0.9
			c-0.1-0.2-0.4-0.3-0.8-0.3s-0.9,0.2-1.4,0.6c0,0.1,0,0.3,0,0.6v4.1c0,0.1,0,0.1-0.1,0.2c0,0-0.1,0.1-0.2,0.1h-0.6
			c-0.1,0-0.1,0-0.2-0.1c0,0-0.1-0.1-0.1-0.2V32c0-0.4-0.1-0.7-0.2-0.9s-0.4-0.3-0.8-0.3s-0.9,0.2-1.4,0.5v4.8c0,0.1,0,0.1-0.1,0.2
			c0,0-0.1,0.1-0.2,0.1H99C98.9,36.4,98.9,36.4,98.9,36.2C98.9,36.4,98.9,36.3,98.9,36.2z"/>
	</g>
</g>
<g>
	<g>
		<g>
			<rect x="11.1" y="23.6" class="st1" width="34.6" height="1.9"/>
		</g>
		<g>
			
				<rect x="28.4" y="5.2" transform="matrix(0.7561 -0.6545 0.6545 0.7561 -9.1543 25.2779)" class="st1" width="1.9" height="39.5"/>
		</g>
		<g>
			<path class="st1" d="M13.3,12c-0.1,0-0.1,0-0.2,0c-1.6,0-3.1-0.7-4.2-1.9S7.2,7.4,7.2,5.8s0.7-3.1,1.9-4.2s2.7-1.7,4.3-1.6
				c1.6,0,3.1,0.7,4.2,1.9c1.1,1.2,1.7,2.7,1.6,4.3c0,1.6-0.7,3.1-1.9,4.2C16.3,11.4,14.8,12,13.3,12z M13.2,1.8
				c-1.1,0-2.1,0.4-2.9,1.1C9.6,3.7,9.1,4.7,9.1,5.8l0,0c0,1.1,0.4,2.2,1.1,3c0.8,0.8,1.8,1.3,2.9,1.3s2.2-0.4,3-1.1
				c0.8-0.8,1.3-1.8,1.3-2.9s-0.4-2.2-1.1-3c-0.8-0.8-1.8-1.3-2.9-1.3C13.3,1.8,13.3,1.8,13.2,1.8z"/>
		</g>
		<g>
			<path class="st1" d="M6,30.6c-2.8,0-5.4-2-5.9-4.9l0,0c-0.6-3.3,1.5-6.4,4.8-7.1c1.6-0.3,3.2,0,4.5,0.9s2.2,2.3,2.6,3.8
				c0.3,1.6,0,3.2-0.9,4.5S8.8,30,7.3,30.4C6.8,30.5,6.4,30.6,6,30.6z M1.9,25.3c0.4,2.3,2.6,3.7,4.9,3.3c1.1-0.2,2-0.8,2.7-1.8
				c0.6-0.9,0.8-2,0.6-3.1s-0.8-2-1.8-2.7c-0.9-0.6-2-0.8-3.1-0.6C3,20.9,1.5,23.1,1.9,25.3L1.9,25.3z"/>
		</g>
		<g>
			<path class="st1" d="M50.8,30.6c-0.8,0-1.6-0.2-2.4-0.5c-1.5-0.6-2.6-1.8-3.2-3.3c-0.6-1.5-0.5-3.1,0.1-4.6l0,0
				c1.3-3,4.9-4.4,8-3.1c3,1.3,4.4,4.9,3.1,8c-0.6,1.5-1.8,2.6-3.3,3.2C52.2,30.4,51.5,30.6,50.8,30.6z M50.8,20.4
				c-1.6,0-3.1,0.9-3.8,2.5l0,0c-0.4,1-0.5,2.2-0.1,3.2s1.2,1.9,2.2,2.3s2.2,0.5,3.2,0.1s1.9-1.2,2.3-2.2c0.9-2.1,0-4.6-2.1-5.5
				C51.9,20.5,51.3,20.4,50.8,20.4z"/>
		</g>
		<g>
			<path class="st1" d="M43.1,8.7c-0.9,0-1.9-0.3-2.6-0.9c-0.9-0.7-1.5-1.7-1.7-2.9l0,0c-0.2-1.1,0.2-2.3,0.9-3.2s1.7-1.5,2.9-1.7
				c1.1-0.2,2.3,0.2,3.2,0.9s1.5,1.7,1.7,2.9c0.3,2.4-1.4,4.6-3.7,4.9C43.4,8.7,43.3,8.7,43.1,8.7z M43.1,1.9c-0.1,0-0.2,0-0.3,0
				c-0.7,0.1-1.2,0.4-1.6,0.9c-0.4,0.5-0.6,1.2-0.5,1.8l0,0c0.1,0.7,0.4,1.2,0.9,1.6c0.5,0.4,1.2,0.6,1.8,0.5
				c1.3-0.2,2.3-1.4,2.1-2.8c-0.1-0.7-0.4-1.2-0.9-1.6C44.1,2,43.6,1.9,43.1,1.9z"/>
		</g>
		<g>
			<path class="st1" d="M41.2,13.6c-1.6,0-3.2-0.5-4.5-1.5c-1.6-1.2-2.6-2.9-2.8-4.9c-0.1-0.4,0.2-0.7,0.6-0.8
				c0.4-0.1,0.7,0.2,0.8,0.6c0.2,1.6,1,3,2.3,3.9c1.3,1,2.8,1.4,4.4,1.2c0.4-0.1,0.7,0.2,0.8,0.6c0.1,0.4-0.2,0.7-0.6,0.8
				C41.8,13.6,41.5,13.6,41.2,13.6z"/>
		</g>
		<g>
			<path class="st1" d="M42,11.3c-1.2,0-2.5-0.4-3.5-1.2c-1.2-0.9-2-2.2-2.3-3.7c-0.1-0.4,0.2-0.7,0.6-0.8c0.4-0.1,0.7,0.2,0.8,0.6
				c0.4,2.3,2.6,4,4.9,3.7c0.4-0.1,0.7,0.2,0.8,0.6c0.1,0.4-0.2,0.7-0.6,0.8C42.5,11.2,42.3,11.3,42,11.3z"/>
		</g>
		<g>
			<path class="st1" d="M11.3,50.4c-2.3,0-4.2-1.8-4.3-4.1c-0.2-2.4,1.7-4.5,4-4.6c2.4-0.2,4.5,1.7,4.6,4l0,0
				c0.1,1.2-0.3,2.3-1.1,3.1c-0.8,0.9-1.8,1.4-3,1.5C11.5,50.4,11.4,50.4,11.3,50.4z M11.3,43.6c-0.1,0-0.1,0-0.2,0
				c-1.4,0.1-2.4,1.3-2.3,2.6c0.1,1.4,1.3,2.4,2.6,2.3c0.7,0,1.3-0.3,1.7-0.8s0.7-1.1,0.6-1.8l0,0C13.7,44.6,12.6,43.6,11.3,43.6z"
				/>
		</g>
		<g>
			<path class="st1" d="M19.9,44.6c-0.4,0-0.7-0.3-0.7-0.7c-0.2-3.3-3-5.8-6.3-5.6c-0.4,0-0.7-0.3-0.7-0.7s0.3-0.7,0.7-0.7
				c4-0.3,7.5,2.8,7.8,6.9C20.7,44.2,20.4,44.6,19.9,44.6C20,44.6,19.9,44.6,19.9,44.6z"/>
		</g>
		<g>
			<path class="st1" d="M17.5,45.3c-0.4,0-0.7-0.3-0.7-0.6c-0.2-2.4-2.3-4.2-4.7-4c-0.4,0-0.7-0.3-0.7-0.7s0.3-0.7,0.7-0.7
				c1.5-0.1,3,0.4,4.2,1.4s1.9,2.4,2,3.9C18.2,44.9,18,45.3,17.5,45.3C17.6,45.3,17.5,45.3,17.5,45.3z"/>
		</g>
		<g>
			<path class="st1" d="M45.9,50.3c-0.8,0-1.7-0.2-2.5-0.5c-1.5-0.7-2.6-1.9-3.2-3.4c-0.6-1.5-0.5-3.1,0.2-4.6l0,0c1.4-3,5-4.4,8-3
				c1.5,0.7,2.6,1.9,3.2,3.4c0.6,1.5,0.5,3.1-0.2,4.6C50.4,49,48.2,50.3,45.9,50.3z M42.2,42.6c-0.5,1-0.5,2.1-0.1,3.2
				c0.4,1,1.2,1.9,2.2,2.3c2.1,1,4.6,0,5.5-2.1c0.5-1,0.5-2.1,0.1-3.2c-0.4-1-1.2-1.9-2.2-2.3C45.6,39.5,43.1,40.5,42.2,42.6
				L42.2,42.6z"/>
		</g>
		<g>
			<path class="st2" d="M23,15.2c0,0.1,11.2,6.6,11.2,6.6l0.2,10.1l5.9-4.4V19l-12.1-7L23,15.2z"/>
		</g>
		<g>
			<path class="st2" d="M34.4,32v-0.1l-0.2-10c-0.3-0.2-3-1.7-5.6-3.3C23,15.3,23,15.2,23,15.2l0,0l5.3-3.2l0,0l12.1,7l0,0v8.5l0,0
				L34.4,32z M23.1,15.2c0.7,0.5,7.5,4.5,11.1,6.6l0,0l0.2,10l5.8-4.3v-8.4l-12-7L23.1,15.2z"/>
		</g>
		<g>
			<path class="st3" d="M24.3,14.8c0,0-8.2,4.3-8.1,4.4s0.5,8.3,0.5,8.3l11.8,6.3l7-2.2v-10L24.3,14.8z"/>
		</g>
		<g>
			<path class="st3" d="M28.5,33.9L28.5,33.9l-11.8-6.4l0,0c-0.1-2.2-0.5-8.1-0.5-8.3c0-0.1-0.1-0.1,4.1-2.3c2-1.1,4.1-2.1,4.1-2.1
				l0,0l0,0l11.2,6.8v10.2l0,0L28.5,33.9z M16.7,27.5l11.7,6.3l6.9-2.2v-10l-11.1-6.7c-3.1,1.6-7.8,4.1-8.1,4.3
				C16.3,19.8,16.6,25.6,16.7,27.5z M16.2,19.2L16.2,19.2L16.2,19.2z"/>
		</g>
		<g>
			<path class="st4" d="M40.3,26.6L28.7,33c0-1-4.7-11.3-11.7-5.6l-0.3,5.8l11.8,6.7l12-7.1L40.3,26.6z"/>
		</g>
		<g>
			<path class="st1" d="M28.6,41.2c-0.2,0-0.3,0-0.4-0.1l-12.5-7.2c-0.3-0.2-0.4-0.5-0.4-0.8V18.9c0-0.3,0.2-0.6,0.4-0.8l12.5-7.3
				c0.3-0.2,0.6-0.2,0.9,0L41.4,18c0.3,0.2,0.4,0.5,0.4,0.8v14.3c0,0.3-0.2,0.6-0.4,0.8l-12.3,7.2C29,41.1,28.8,41.2,28.6,41.2z
				 M17,32.6l11.6,6.7L40,32.6V19.3l-11.4-6.6L17,19.4V32.6z"/>
		</g>
		<g>
			<path class="st1" d="M28.6,26.7c-0.1,0-0.2,0-0.3-0.1l-12.3-7c-0.3-0.2-0.5-0.6-0.3-1c0.2-0.3,0.6-0.5,1-0.3l12,6.8l12-6.8
				c0.3-0.2,0.8-0.1,1,0.3c0.2,0.3,0.1,0.8-0.3,1l-12.3,7C28.9,26.6,28.8,26.7,28.6,26.7z"/>
		</g>
		<g>
			<rect x="27.9" y="26" class="st1" width="1.4" height="14.3"/>
		</g>
	</g>
</g>
</svg>
