<?xml version="1.0" encoding="UTF-8"?><svg id="Layer_1" xmlns="http://www.w3.org/2000/svg" viewBox="0 0 396.85 396.85"><defs><style>.cls-1{fill:#fff;stroke-width:10px;}.cls-1,.cls-2{stroke:#000;stroke-linecap:round;stroke-miterlimit:10;}.cls-2{fill:none;stroke-width:3px;}.cls-3{fill:#3b97c3;}</style></defs><rect class="cls-1" x="123.83" y="114.22" width="145.27" height="168.42" rx="28.04" ry="28.04"/><path d="M245.74,114.22h-98.54l14.05-74.83c1.15-6.11,6.48-10.53,12.7-10.53h45.06c6.22,0,11.55,4.43,12.7,10.53l14.05,74.83Z"/><path d="M147.2,282.63h98.54l-14.05,74.83c-1.15,6.11-6.48,10.53-12.7,10.53h-45.06c-6.22,0-11.55-4.43-12.7-10.53l-14.05-74.83Z"/><rect x="269.11" y="179.12" width="20.66" height="38.6" rx="5.98" ry="5.98"/><path d="M168.48,156.46c3.19,1.91,4.79,4.69,4.79,8.34,0,3.19-1.11,5.71-3.33,7.55-2.22,1.84-5.24,2.76-9.05,2.76s-6.87-.92-9.08-2.76c-2.2-1.84-3.3-4.36-3.3-7.55,0-3.62,1.58-6.4,4.74-8.34-2.4-1.71-3.6-4.09-3.6-7.15s1.07-5.67,3.21-7.45c2.17-1.78,4.85-2.66,8.04-2.66s5.89.89,7.99,2.66c2.14,1.78,3.21,4.26,3.21,7.45s-1.2,5.44-3.6,7.15ZM164.97,167.42c1.02-.85,1.53-2.02,1.53-3.5s-.51-2.64-1.53-3.48c-1.02-.84-2.38-1.26-4.09-1.26s-3.08.42-4.09,1.26c-1.02.84-1.53,2-1.53,3.48s.51,2.65,1.53,3.5c1.02.86,2.38,1.28,4.09,1.28s3.07-.43,4.09-1.28ZM164.09,146.7c-.82-.72-1.89-1.09-3.21-1.09s-2.39.36-3.21,1.09c-.82.72-1.23,1.71-1.23,2.96s.41,2.29,1.23,3.01c.82.72,1.89,1.09,3.21,1.09s2.38-.36,3.21-1.09c.82-.72,1.23-1.73,1.23-3.01s-.41-2.24-1.23-2.96Z"/><path d="M185.69,153.21c0,1.15-.41,2.14-1.23,2.96-.82.82-1.81,1.23-2.96,1.23s-2.14-.41-2.96-1.23c-.82-.82-1.23-1.81-1.23-2.96s.41-2.14,1.23-2.96,1.81-1.23,2.96-1.23,2.14.41,2.96,1.23c.82.82,1.23,1.81,1.23,2.96ZM185.69,170.87c0,1.15-.41,2.14-1.23,2.96-.82.82-1.81,1.23-2.96,1.23s-2.14-.41-2.96-1.23c-.82-.82-1.23-1.81-1.23-2.96s.41-2.14,1.23-2.96c.82-.82,1.81-1.23,2.96-1.23s2.14.41,2.96,1.23c.82.82,1.23,1.81,1.23,2.96Z"/><path d="M211.99,145.51l-6.46,8.39c2.4.69,4.32,1.91,5.75,3.65,1.43,1.74,2.14,3.82,2.14,6.22,0,3.55-1.2,6.33-3.6,8.34-2.34,2.01-5.24,3.01-8.73,3.01-2.73,0-5.15-.63-7.25-1.9-2.1-1.27-3.63-3.07-4.59-5.4l5.82-3.35c.82,2.66,2.83,4,6.02,4,1.74,0,3.1-.42,4.07-1.26.97-.84,1.45-1.98,1.45-3.43s-.49-2.55-1.45-3.4c-.97-.86-2.33-1.28-4.07-1.28h-1.48l-2.61-3.95,6.81-8.88h-13.52v-6.36h21.71v5.62Z"/><path d="M230.53,175.11c-4.31,0-7.69-1.63-10.16-4.88-2.43-3.32-3.65-7.68-3.65-13.07s1.22-9.73,3.65-13.02c2.47-3.29,5.85-4.93,10.16-4.93s7.76,1.65,10.16,4.93c2.43,3.29,3.65,7.63,3.65,13.02s-1.22,9.75-3.65,13.07c-2.4,3.26-5.79,4.88-10.16,4.88ZM237.59,157.16c0-3.68-.6-6.49-1.8-8.44-1.2-1.94-2.95-2.91-5.25-2.91s-4.04.97-5.23,2.91c-1.18,1.94-1.78,4.75-1.78,8.44s.59,6.49,1.78,8.41,2.93,2.89,5.23,2.89,4.05-.97,5.25-2.91c1.2-1.94,1.8-4.74,1.8-8.39Z"/><circle cx="160.16" cy="252.28" r="11.66"/><circle cx="196.47" cy="252.28" r="11.66"/><circle cx="232.78" cy="252.28" r="11.66"/><path class="cls-3" d="M177.71,195.51c-3.86-3.86-10.13-3.86-13.99,0-3.86-3.86-10.13-3.86-13.99,0-3.86,3.86-3.86,10.13,0,13.99h0s11.31,11.31,11.31,11.31c1.48,1.48,3.88,1.48,5.36,0l11.31-11.31h0c3.86-3.86,3.86-10.13,0-13.99Z"/><line class="cls-2" x1="199.33" y1="198.43" x2="244.35" y2="198.43"/><line class="cls-2" x1="199.33" y1="207.26" x2="232.78" y2="207.26"/><line class="cls-2" x1="199.33" y1="216.1" x2="244.35" y2="216.1"/></svg>